<svg xmlns="http://www.w3.org/2000/svg" viewBox="0 0 106.9 134.6"><defs><style>.cls-1{fill:#434243;}</style></defs><g id="Capa_2" data-name="Capa 2"><g id="svg3120"><path class="cls-1" d="M24.7,119.2c0-6.9-5.2-7.8-11.2-7.8H5.9v23.2h5.9v-6l5.4,5.4h9.1l-7.2-7.2C19.2,126.8,24.3,126.7,24.7,119.2Zm-7.4,2.7H12.2v-4.1h5.1Z"/><path class="cls-1" d="M39.1,111.5H37.8c-3.2,0-7.7.3-7.7,6.4V134h6.1v-3.9h5.9v3.8h6.1V117C48.1,111.7,42.2,111.5,39.1,111.5Zm2.8,12.2H36.2v-6.3h5.7Z"/><rect class="cls-1" x="54.2" y="111.6" width="6.3" height="22.2"/><polygon class="cls-1" points="73.2 111.8 67 111.8 67 134 82.1 134 82.1 128.1 73.2 128.1 73.2 111.8"/><path class="cls-1" d="M96.3,119.8H92v-2.2h10.1v-6s-3.2-.1-8.7-.1-8.2,2.1-8.2,7.5,5.3,6.9,8.1,6.9,4.3.4,4.3,1.1-.2,1.7-2.9,1.7H85.6v5.4h7.9c6.6,0,9.8-.4,9.8-7.4S98.6,119.8,96.3,119.8Z"/><path class="cls-1" d="M71.7,6.3C52.1,8.1,38.6,21,30.1,36.7S16.8,63.3,13.5,79.8s-2,25.1-2,25.1H63.7S52.1,78.6,55.1,54.5s22-35.1,32.7-36.3,16.7,5.5,16.7,5.5l2.4-3.5C106.8,20.2,91.3,4.5,71.7,6.3Z"/><polygon class="cls-1" points="11.3 79.4 1.1 78.6 0 88.4 9.6 89.6 11.3 79.4"/><polygon class="cls-1" points="19.9 49.4 10.9 45.9 8 54.1 17.2 57.1 19.9 49.4"/><polygon class="cls-1" points="35.2 24.5 28.4 20 22.9 26.1 29.9 30.8 35.2 24.5"/><polygon class="cls-1" points="55 8.4 50.3 3.1 43.9 6.5 48.6 12.2 55 8.4"/><polygon class="cls-1" points="76 5.5 75.2 0.4 66.8 0 68 5.7 76 5.5"/><polygon class="cls-1" points="100.5 10.8 94.1 6.1 93.9 9.6 99.3 12.6 100.5 10.8"/><polygon class="cls-1" points="98.2 22.4 92.9 21.2 92.9 24.1 98.2 24.7 98.2 22.4"/><polygon class="cls-1" points="76 23.7 78.6 28.4 82.3 25.5 81.5 22.4 76 23.7"/><polygon class="cls-1" points="71.9 35.7 68 29.8 63.9 33.5 69.5 39.8 71.9 35.7"/><polygon class="cls-1" points="57.6 51.2 64.3 56.9 65.8 50.4 60.1 46.1 57.6 51.2"/><polygon class="cls-1" points="57 70.8 65.2 74.3 64.8 67.8 57.4 63.9 57 70.8"/><polygon class="cls-1" points="72.1 95.9 68.4 88.2 59.7 88.2 61.7 95.3 72.1 95.9"/></g></g></svg>