<svg xmlns="http://www.w3.org/2000/svg" viewBox="0 0 99 86.5"><defs><style>.cls-1{fill:none;}.cls-2{fill:#434243;}</style></defs><g id="Capa_2" data-name="Capa 2"><g id="svg3120"><polygon class="cls-1" points="19.9 2.9 0 26.4 24.1 26.4 19.9 2.9"/><polygon class="cls-1" points="45 0 23.9 0 28.1 23.1 45 0"/><polygon class="cls-1" points="75.1 0 54 0 71 23.1 75.1 0"/><polygon class="cls-1" points="99 26.4 79.2 2.9 75 26.4 99 26.4"/><polygon class="cls-1" points="67.8 26.4 49.5 1.6 31.2 26.4 67.8 26.4"/><polygon class="cls-1" points="0 31 43.3 82.3 25.2 31 0 31"/><polygon class="cls-1" points="55.8 82.3 99 31 73.9 31 55.8 82.3"/><polygon class="cls-1" points="30 31 49.5 86.5 69.1 31 30 31"/><path class="cls-2" d="M79.2,2.9,99,26.4H75ZM75.1,0,71,23.1,54,0ZM67.8,26.4H31.2L49.5,1.6ZM45,0,28,23.1,23.9,0ZM19.9,2.9l4.2,23.5H.1ZM0,31H25.1L43.3,82.3ZM49.5,86.5,30,31H69.1Zm6.3-4.2L73.9,31H99Z"/></g></g></svg>