<svg xmlns="http://www.w3.org/2000/svg" viewBox="0 0 241.06 241.12"><defs><style>.cls-1{fill:#444344;}</style></defs><g id="Capa_2" data-name="Capa 2"><g id="Capa_1-2" data-name="Capa 1"><path class="cls-1" d="M120.56,241.12C54,241.18.05,187.2,0,120.45,0,54.28,54,0,119.92,0c67,0,121.12,53.69,121.14,120.1A120.53,120.53,0,0,1,120.56,241.12Zm102-120.55A102.05,102.05,0,0,0,120.25,18.51C64.46,18.48,18.55,64.27,18.5,120a102,102,0,1,0,204.06.6Z"/><path class="cls-1" d="M74.19,112q0-13.75,0-27.52c0-6.11,3.86-10.29,9.37-10.23,5.36.06,9.12,4.23,9.12,10.18,0,18.15,0,36.31,0,54.46A9.13,9.13,0,0,0,99.34,148a8.62,8.62,0,0,0,10-3.34,13.22,13.22,0,0,0,1.89-6.47c.14-18.06.06-36.12.09-54.18,0-7,6.1-11.47,12.34-9.24a9,9,0,0,1,6.11,8.33c.06,19.32.3,38.64-.09,57.94-.27,13.62-12.25,25.14-25.83,25.86-14.18.74-27-8.91-29-22.54-.9-6.16-.52-12.51-.64-18.77C74.12,121,74.19,116.5,74.19,112Z"/><path class="cls-1" d="M148.37,120.39q0-18,0-35.92c0-6.13,3.84-10.31,9.34-10.26s9.15,4.2,9.15,10.16q0,36.21,0,72.44c0,5.92-3.82,10.08-9.2,10.1s-9.28-4.12-9.29-10Q148.35,138.64,148.37,120.39Z"/></g></g></svg>