<svg xmlns="http://www.w3.org/2000/svg" viewBox="0 0 241.12 241.12"><defs><style>.cls-1{fill:#444344;}</style></defs><g id="Capa_2" data-name="Capa 2"><g id="Capa_1-2" data-name="Capa 1"><path class="cls-1" d="M120.36,0c66.45,0,120.77,54.1,120.76,120.36A120.8,120.8,0,0,1,120.17,241.12C54.22,241.09,0,186.81,0,120.75,0,54.3,54,0,120.36,0ZM222.65,120.54c-.08-56.25-45.92-102.08-102.11-102.08S18.45,64.39,18.46,120.58c0,56.42,46,102.17,102.69,102.07C176.85,222.55,222.72,176.4,222.65,120.54Z"/><path class="cls-1" d="M111.24,112.37c0,8.89.08,17.78,0,26.67a27.76,27.76,0,1,1-55.52,0c-.12-18-.06-35.95,0-53.92,0-6.8,3.67-10.93,9.34-10.84s9.08,4.19,9.09,11.09c0,17.58-.25,35.18.26,52.75.1,3.18,2.71,7.39,5.43,9,2.19,1.34,7.15.6,9.3-1.15s3.45-5.95,3.51-9.11c.33-17,.14-34,.16-51,0-7.36,3.36-11.57,9.15-11.62s9.28,4.14,9.32,11.47C111.27,94.59,111.24,103.48,111.24,112.37Z"/><path class="cls-1" d="M157.7,141.42c-3,5.83-5.43,10.55-7.82,15.29-4.84,9.57-9.13,12.18-15,9.06s-6.2-7.93-1.4-17.56c3.86-7.77,7.51-15.65,11.7-23.23,1.84-3.33,1.58-5.85-.11-9-4.42-8.34-8.54-16.84-12.73-25.3-3.27-6.6-2.3-12,2.56-14.61,5.26-2.86,10.38-.58,13.85,6.19,2.78,5.43,5.54,10.88,8.87,17.42,3.43-6.73,6.34-12.47,9.28-18.2,3.4-6.61,8.14-8.79,13.35-6.16s6.4,7.64,3.1,14.35c-4.43,9-9.11,17.86-13.23,27a10.59,10.59,0,0,0,0,7.79c4.2,9.3,9,18.33,13.49,27.5,3.08,6.27,1.87,11.2-3.25,13.89s-10,.61-13.15-5.51C164.15,154.39,161.22,148.42,157.7,141.42Z"/></g></g></svg>